<svg width="200" height="200" viewBox="0 0 200 200" fill="none" xmlns="http://www.w3.org/2000/svg">
<rect width="200" height="200" rx="100" fill="#1D1B1B"/>
<path d="M45.3555 146.656L57.5078 93.8633C60.474 80.9805 64.9896 70.6432 71.0547 62.8516C81.6797 49.2161 93.5664 42.3984 106.715 42.3984C117.783 42.3984 125.552 46.4714 130.023 54.6172C132.458 59.0443 133.676 63.8034 133.676 68.8945C133.676 71.5951 133.344 74.3841 132.68 77.2617C130.909 84.8763 126.592 91.9818 119.73 98.5781C115.303 102.828 110.279 105.971 104.656 108.008L120.195 141.145L107.246 146.656H106.582L89.7812 110.797H74.7734L74.9727 110.133L82.4102 99.5078H90.2461C98.569 99.5078 104.988 97.4714 109.504 93.3984C114.684 88.7057 117.982 83.3268 119.398 77.2617C119.974 74.7826 120.262 72.4805 120.262 70.3555C120.262 66.2383 119.199 62.7409 117.074 59.8633C114.02 55.7461 109.703 53.6875 104.125 53.6875C95.9792 53.6875 88.3646 58.4688 81.2812 68.0312C76.8984 73.9635 73.401 82.5742 70.7891 93.8633L60.0312 140.68L46.0195 146.656H45.3555Z" fill="#EC4D37"/>
<path d="M64.3555 146.656L76.5078 93.8633C79.474 80.9805 83.9896 70.6432 90.0547 62.8516C100.68 49.2161 112.566 42.3984 125.715 42.3984C136.783 42.3984 144.552 46.4714 149.023 54.6172C151.458 59.0443 152.676 63.8034 152.676 68.8945C152.676 71.5951 152.344 74.3841 151.68 77.2617C149.909 84.8763 145.592 91.9818 138.73 98.5781C134.303 102.828 129.279 105.971 123.656 108.008L139.195 141.145L126.246 146.656H125.582L108.781 110.797H93.7734L93.9727 110.133L101.41 99.5078H109.246C117.569 99.5078 123.988 97.4714 128.504 93.3984C133.684 88.7057 136.982 83.3268 138.398 77.2617C138.974 74.7826 139.262 72.4805 139.262 70.3555C139.262 66.2383 138.199 62.7409 136.074 59.8633C133.02 55.7461 128.703 53.6875 123.125 53.6875C114.979 53.6875 107.365 58.4688 100.281 68.0312C95.8984 73.9635 92.401 82.5742 89.7891 93.8633L79.0312 140.68L65.0195 146.656H64.3555Z" fill="#EC4D37"/>
</svg>
